<svg width="249" height="65" viewBox="0 0 249 65" fill="none" xmlns="http://www.w3.org/2000/svg">
<path fill-rule="evenodd" clip-rule="evenodd" d="M166.54 41.2187H181.09V22.1953H166.54C164.028 22.1953 161.69 24.4942 161.69 26.9512V36.4628C161.69 38.9198 164.028 41.2187 166.54 41.2187ZM224.747 41.2187H239.298V22.1953H224.747C222.236 22.1953 219.897 24.4942 219.897 26.9512V36.4628C219.897 38.9198 222.236 41.2187 224.747 41.2187ZM190.792 15.0605V48.3535C190.792 49.4022 189.439 50.7325 188.367 50.7325L183.517 50.7823C182.443 50.7823 181.092 49.4022 181.092 48.3557V46.7675L178.89 49.3588C178.219 50.2537 176.565 50.7325 175.432 50.7325H166.54C158.736 50.7325 151.987 44.096 151.987 36.4628V26.9512C151.987 19.318 158.736 12.6837 166.538 12.6837H188.367C189.439 12.6837 190.792 14.0118 190.792 15.0605ZM249 15.0605V48.3535C249 49.4022 247.649 50.7325 246.575 50.7325L241.725 50.7823C240.651 50.7823 239.3 49.4022 239.3 48.3557V46.7675L237.098 49.3588C236.427 50.2537 234.772 50.7325 233.64 50.7325H224.747C216.944 50.7325 210.195 44.096 210.195 36.4628V26.9512C210.195 19.318 216.944 12.6837 224.745 12.6837H246.575C247.647 12.6837 249 14.0118 249 15.0605ZM87.3124 22.1953H72.76C70.2483 22.1953 67.9099 24.4942 67.9099 26.9512V36.4628C67.9099 38.9198 70.2483 41.2187 72.76 41.2187H87.3102V22.1953H87.3124ZM97.0126 15.0605V51.5233C97.0126 59.1565 90.2636 65 82.4623 65H74.9598C73.8447 65 72.7946 64.4887 72.1212 63.6177L67.8514 58.0927C67.1434 57.174 67.5396 55.4883 68.7153 55.4883H82.458C84.9696 55.4883 87.3081 53.9803 87.3081 51.5233V50.7325H72.7578C64.9544 50.7325 58.2075 44.096 58.2075 36.4628V26.9512C58.2075 19.318 64.9544 12.6837 72.7578 12.6837H81.6503C82.7633 12.6837 83.9758 13.5612 84.7618 14.2675L87.3102 16.6465V15.0583C87.3102 14.0118 88.6635 12.6815 89.7353 12.6815H94.5854C95.6593 12.6815 97.0104 14.0097 97.0104 15.0583L97.0126 15.0605ZM9.70234 36.465C9.70234 38.922 12.0408 41.2208 14.5524 41.2208H29.1027V22.1975H14.5524C12.0408 22.1975 9.70234 24.4963 9.70234 26.9533V36.465ZM36.3757 0C37.4518 0 38.8029 1.32817 38.8029 2.379V48.3557C38.8029 49.4022 37.4518 50.7325 36.3778 50.7325H31.5277C30.4538 50.7325 29.1027 49.4043 29.1027 48.3535V46.7675L26.5586 49.4368C25.87 50.1865 24.5406 50.7325 23.4406 50.7325H14.5546C6.74898 50.7325 0 44.096 0 36.4628V27.0248C0 19.3917 6.74898 12.6815 14.5503 12.6815H29.1049V2.38117C29.1049 1.33033 30.4559 0.00216667 31.5299 0.00216667H36.38L36.3757 0ZM136.625 31.707L150.128 14.95C150.879 14.0378 150.214 12.6793 149.017 12.6793H141.296C140.711 12.6793 140.159 12.9372 139.789 13.3792L126.117 30.121V2.379C126.117 1.32817 124.764 0 123.692 0H118.842C117.768 0 116.417 1.32817 116.417 2.379V48.3557C116.417 49.4022 117.768 50.7325 118.842 50.7325H123.692C124.764 50.7325 126.117 49.4022 126.117 48.3535V33.293L139.795 50.0717C140.163 50.5202 140.722 50.7823 141.311 50.7823H149.023C150.223 50.7823 150.885 49.4238 150.136 48.5117L136.625 31.707ZM104.29 0C103.216 0 101.865 1.32817 101.865 2.379V7.13483C101.865 8.1835 103.216 9.51167 104.29 9.51167H109.14C110.212 9.51167 111.565 8.1835 111.565 7.13483V2.379C111.565 1.32817 110.212 0 109.14 0H104.29ZM104.29 12.6837C103.216 12.6837 101.865 14.0118 101.865 15.0605V48.3535C101.865 49.4022 103.597 50.7802 104.669 50.7802L109.14 50.7325C110.212 50.7325 111.565 49.4022 111.565 48.3535V15.0605C111.565 14.0118 110.212 12.6837 109.14 12.6837H104.29ZM46.0802 0C45.0084 0 43.6551 1.32817 43.6551 2.379V7.13483C43.6551 8.1835 45.0084 9.51167 46.0802 9.51167H50.9302C52.0042 9.51167 53.3553 8.1835 53.3553 7.13483V2.379C53.3553 1.32817 52.0042 0 50.9302 0H46.0802ZM46.0802 12.6837C45.0084 12.6837 43.6551 14.0118 43.6551 15.0605V48.3535C43.6551 49.4022 45.0084 50.7325 46.0802 50.7325H50.9302C52.0042 50.7325 53.3553 49.4022 53.3553 48.3535V15.0605C53.3553 14.0118 52.0042 12.6837 50.9302 12.6837H46.0802ZM205.345 2.379V48.3557C205.345 49.4022 203.992 50.7325 202.92 50.7325H198.07C196.996 50.7325 195.645 49.4022 195.645 48.3535V2.37683C195.645 1.32817 196.996 0 198.07 0H202.92C203.992 0 205.345 1.32817 205.345 2.379Z" fill="#EF4C5F"/>
</svg>
